PathFileType	4	(X/Y/Z)	RBDS09\RBDS09runT35.trc
DataRate	CameraRate	NumFrames	NumMarkers	Units	OrigDataRate	OrigDataStartFrame	OrigNumFrames
150.000000	150.000000	6	33	mm	150.000000	2250	4500
Frame#	Time	L.ASIS			L.Heel.Bottom			L.Heel.Lateral			L.Heel.Top			L.Iliac.Crest			L.MT1			L.MT5			L.PSIS			L.Shank.Bottom.Lateral			L.Shank.Bottom.Medial			L.Shank.Top.Lateral			L.Shank.Top.Medial			L.Thigh.Bottom.Lateral			L.Thigh.Bottom.Medial			L.Thigh.Top.Lateral			L.Thigh.Top.Medial			R.ASIS			R.ASY			R.Heel.Bottom			R.Heel.Lateral			R.Heel.Top			R.Iliac.Crest			R.MT1			R.MT5			R.PSIS			R.Shank.Bottom.Lateral			R.Shank.Bottom.Medial			R.Shank.Top.Lateral			R.Shank.Top.Medial			R.Thigh.Bottom.Lateral			R.Thigh.Bottom.Medial			R.Thigh.Top.Lateral			R.Thigh.Top.Medial			
		X1	Y1	Z1	X2	Y2	Z2	X3	Y3	Z3	X4	Y4	Z4	X5	Y5	Z5	X6	Y6	Z6	X7	Y7	Z7	X8	Y8	Z8	X9	Y9	Z9	X10	Y10	Z10	X11	Y11	Z11	X12	Y12	Z12	X13	Y13	Z13	X14	Y14	Z14	X15	Y15	Z15	X16	Y16	Z16	X17	Y17	Z17	X18	Y18	Z18	X19	Y19	Z19	X20	Y20	Z20	X21	Y21	Z21	X22	Y22	Z22	X23	Y23	Z23	X24	Y24	Z24	X25	Y25	Z25	X26	Y26	Z26	X27	Y27	Z27	X28	Y28	Z28	X29	Y29	Z29	X30	Y30	Z30	X31	Y31	Z31	X32	Y32	Z32	X33	Y33	Z33	

2251	15	2334.315142603235	951.9168420182905	898.1099084521608	2009.62494428949	338.0321981783421	962.6914537918428	2038.222469692397	322.597931275016	916.288750099904	2055.450814747395	356.1115347575013	958.938380978329	2252.782734322377	1006.980219293726	864.3399801483598	2133.069676405387	160.6319197932049	972.9652421152607	2097.291612623349	195.4409637903862	873.7407672086961	2170.142073674574	975.0316158146757	973.6169393723422	2159.608721157596	367.1973152036974	886.8918726663348	2141.454443925952	396.0312119018495	928.621395413603	2219.234591064539	419.4954672963387	875.5636972831711	2202.655544092771	448.2308746593497	918.0458413316438	2372.528689025555	606.1849286495411	844.6453290908743	2330.469352141068	576.8935949487218	897.2497932737675	2306.897918801059	694.6317603104058	842.7815144353259	2267.495085256505	667.6846417503066	893.754568139664	2326.268889436918	945.3638146459484	1136.43641171238	169487609.609232	-236649371.8390777	-615758775.3086996	1919.908988760337	77.93807910941491	1031.164550774634	1950.017113499207	88.10594741164373	1081.879876559268	1941.934990590767	121.6203167219639	1035.001113674705	2257.885346663209	999.184568670496	1173.018275131558	2127.17437572997	42.41122937345711	1032.122895703507	2073.114307731476	35.88217689272245	1132.247794345175	2168.444919483517	974.4127384854561	1048.454154793866	2014.431080299527	205.9223140165914	1099.35718809807	2000.754814761661	223.064952876994	1052.838655123922	2044.00492900553	283.5670148051724	1116.525967781537	2030.535813110324	296.769814282256	1066.717500004644	2219.173698128055	550.9774980882878	1164.290994418013	2158.056762232773	551.3441910981821	1125.48363890398	2210.349291128225	660.7240663345972	1175.402964749444	2152.876019542497	660.765501966583	1137.899800680684	
2252	15.00666666666667	2335.57950760052	957.561322439667	899.1501048468116	2026.890457484132	318.273904968847	963.9268832204943	2056.088574682105	305.3909797140468	917.1740232346276	2071.275664817407	339.6459753597519	960.008165425776	2254.516620797584	1012.546130287336	864.3549538153226	2162.307021921049	149.664047215431	970.7971638580284	2123.223568821541	183.2105185165678	872.3999711052902	2171.729755959459	980.4955845999953	973.867152980081	2174.533279908499	357.6026600213693	887.0240597659144	2154.528960800225	385.3354807242491	928.7167058113272	2230.602388473875	413.7377019008812	875.5087526204782	2212.13956192569	441.5004752529858	917.9166472814403	2378.897341902696	615.0248858281984	844.614793145004	2336.777307570029	584.6919468089535	896.57321392583	2311.514522850089	702.1008719025861	842.2635568090856	2271.864389168818	674.1227131490989	892.4330822589778	2327.890928351314	948.2451411055549	1136.938435185189	169717579.0944976	-236971681.5906529	-616597031.4151902	1900.434187430286	88.18900950576078	1032.296844582179	1930.849810263145	96.06834248436351	1083.125142500907	1924.178331951481	130.6730752273881	1036.85489064441	2262.672884982018	1004.262497682149	1172.88346753009	2104.880856138737	42.40568984911803	1032.252036473571	2050.784184335487	37.13055852794916	1132.483593073499	2170.510263563627	979.1563884979973	1048.69192850389	1996.483672958634	212.8584394008706	1100.306599874157	1983.299626118723	229.7908920064039	1053.569578865929	2026.277789490097	290.4511732246103	1117.272047966934	2013.351518276671	303.4492282098585	1067.183469159557	2206.793532383891	556.9487873634496	1163.652981057641	2145.849389060542	560.0103600729019	1124.802172752217	2202.569334588166	666.8966839179059	1175.105351198731	2145.369465437936	669.5326409712047	1137.37040011507	
2253	15.01333333333333	2337.074867523003	963.2391801972756	900.3184777653972	2045.244910395526	298.1270508834709	965.3479051013124	2074.848928456281	287.867696592599	918.2393600711633	2087.93528446707	322.7316993115616	961.2870097125748	2257.04722087671	1018.405071025087	864.2137259586533	2192.182684700614	139.2552692211753	968.6813143496215	2149.829558903262	171.3330135903134	871.1401471476775	2173.588067577595	986.2290488422464	974.0473974591478	2189.762321635058	347.7991155372267	887.3285988064022	2168.032980192763	374.1788260608635	929.0763635241957	2241.967703914314	407.6053129384862	875.6411797359971	2221.734647385838	434.1350627108438	918.0602070981398	2384.266358396207	623.5829585083731	844.9319736698394	2341.966177627205	592.3512080881137	896.1802136634859	2315.484319317492	709.5462668091741	842.0925287673815	2275.537767680605	680.6776290934076	891.4531966124857	2329.704371501206	951.1849040365159	1137.400731086596	169947756.4900906	-237294283.8591422	-617436047.9408907	1882.186287880399	99.56353142377861	1033.680928413196	1912.781199738487	104.941071595695	1084.627381447183	1907.788653683221	140.6247881058251	1039.031603161833	2268.170566810491	1009.304637196261	1172.66180684904	2083.152703244548	42.79573856933001	1032.658744482454	2028.959237487436	38.87364784607477	1132.902983286409	2172.804834667259	984.1221551112345	1048.861543853837	1979.626263793581	220.4169652162277	1101.570640783365	1966.914558162033	237.0303844583905	1054.591119690739	2009.536915767068	298.0469772877618	1118.211322426837	1997.053388948443	310.730793412162	1067.862006099307	2194.808370158746	563.8013634302332	1162.942463967045	2134.373011256051	569.5642225410284	1123.700591725804	2195.178654735006	673.7301261100197	1174.680197084409	2138.581325378664	678.9478750863686	1136.405802992012	
2254	15.02	2338.715093555735	968.8653891045866	901.5461052622054	2064.708318599042	277.7930485541664	966.8351783667893	2094.533606040448	270.1708238038923	919.3872992169423	2105.459421598019	305.5271550743914	962.656631834197	2260.134917624423	1024.549110805469	863.9788077260982	2222.580437495327	129.5612809643727	966.7558385690911	2177.087266012975	159.8742504200195	870.0413911836971	2175.659633843155	992.142239947967	974.2157149968673	2205.327377654173	337.8425066922923	887.7489115262741	2182.019688224616	362.6481981898531	929.6284056486863	2253.388098412205	401.0950175792173	875.9016528008226	2231.523082606674	426.1637415132166	918.4060077143915	2388.522441253058	631.630031268389	845.5783320572449	2345.906585044556	599.6432187161925	896.0501585093142	2318.715226516034	716.77286443099	842.2750906620239	2278.410475998065	687.1634800387595	890.8334572559305	2331.700666130125	954.1540069401536	1137.786133291467	170178141.8899426	-237617178.7772239	-618275825.230549	1865.253053657196	111.9594691208793	1035.280479804703	1895.872266887874	114.677986671073	1086.351302778559	1892.814631796598	151.3836617354252	1041.480690876667	2274.262017375307	1014.263382358687	1172.370930924305	2062.08209399578	43.70548771760477	1033.372414351697	2007.716771049759	41.20830330134592	1133.499372588714	2175.284602725229	989.2640633758256	1049.021446124918	1963.924508614809	228.5042278722522	1103.134175805192	1951.664740488477	244.7009803404333	1055.889743577741	1993.883452627747	306.2439954335813	1119.328049334684	1981.745818041584	318.5170116988047	1068.74155729715	2183.344971841982	571.3994296370577	1162.217189768255	2123.702022139285	579.8141061655915	1122.290821736708	2188.258494949655	681.1114925114076	1174.155869819285	2132.556788716112	688.8367873701843	1135.069453155953	
2255	15.02666666666667	2340.416799674581	974.3525344386751	902.7592284836849	2085.257020974574	257.4717881315163	968.2770422865066	2115.13878259187	252.4474569586514	920.5241098370807	2123.83912937998	288.1943971047627	963.9987199329122	2263.531014052191	1030.938849599253	863.7255669713851	2253.355005587019	120.7231471370251	965.1561025420751	2204.952810618496	148.8959890250255	869.1824471434925	2177.878595561835	998.1305833248915	974.4299906988523	2221.228471232035	327.7884890671605	888.2283890905841	2196.502838029629	350.840738580197	930.2971158166026	2264.892377184685	394.2110929759664	876.2257480678593	2241.551805320141	417.6339906032572	918.8756261929985	2391.577484418764	638.9564116496249	846.5170126339825	2348.50784433917	606.3667348446039	896.1612643806293	2321.137578645891	723.5946210151473	842.7970702611181	2280.408816388586	693.4089105786235	890.5813999455004	2333.862147146075	957.12690367901	1138.063732614881	170408735.3879851	-237940366.4775762	-619116363.6289127	1849.65106571551	125.2391094517526	1037.042940332407	1880.12577986692	125.2107728204392	1088.242705423229	1879.226605647756	162.8374084807813	1044.127258795952	2280.804275113736	1019.110370875734	1172.026032223771	2041.735154900264	45.25928509503138	1034.383329168658	1987.118580232201	44.2328449166862	1134.242216579249	2177.897128935288	994.5253963302247	1049.231691258888	1949.394143110636	237.0200912035588	1104.954158303648	1937.562091815513	252.7247395228895	1057.428128428052	1979.382897644121	314.9152699769758	1120.591986508089	1967.499517124972	326.7050964298703	1069.796072303406	2172.54566719015	579.5589628138009	1161.526098403998	2113.901662377616	590.5204869921716	1120.705661543266	2181.893097774305	688.8877482990621	1173.565472063058	2127.319701209529	698.9877573683838	1133.456553388718	
2256	15.03333333333333	2342.104395118365	979.6138384367952	903.8869796660749	2106.824988127696	237.3591415818352	969.5785404452257	2136.624952833871	234.8490102486097	921.5676927463026	2143.027180719435	270.8964437668329	965.2058409076826	2266.996589298573	1037.495379446303	863.5296158251303	2284.332991753063	112.8668062969591	963.9996787192739	2233.353643413423	138.4628970600497	868.6313281566083	2180.172653235334	1004.079079843302	974.7401751192081	2237.430030978599	317.697456614821	888.7173178590125	2211.454644975614	338.8634906980542	931.0137903441286	2276.475186352066	386.9714025013943	876.5539151874667	2251.828516849796	408.6117348269451	919.3956421946767	2393.377880522389	645.3832351227325	847.6946987944407	2349.728607772209	612.359381605514	896.4934454977819	2322.709392358059	729.8438791655426	843.6225610236946	2281.497124579517	699.2656291766416	890.6923395628144	2336.158496361766	960.0810810355981	1138.21241522382	170639537.0781495	-238263847.0928777	-619957663.4807298	1835.319735977944	139.2388332772214	1038.909251464208	1865.483843626114	136.4516449925533	1090.237433798514	1866.913554008315	174.8615978577664	1046.883215319353	2287.629594789229	1023.832521381225	1171.636165557045	2022.14417523938	47.57640125601655	1035.641479873876	1967.20785796453	48.03946391136669	1135.081082047006	2180.582500322465	999.8372064586425	1049.546187965329	1936.001320621677	245.8688065609219	1106.966064426742	1924.566043031078	261.039124110501	1059.152055569341	1966.065513612627	323.9280652062796	1121.964236849097	1954.351103484841	335.1974717458585	1070.991207234429	2162.569748363616	588.0527426334406	1160.906465078928	2105.037858534689	601.404703083028	1119.086393812217	2176.171799359328	696.8679542115417	1172.946472246276	2122.878787005924	709.1594617779347	1131.689085099999	
